<svg id="Capa_1" enable-background="new 0 0 512 512" height="512" viewBox="0 0 512 512" width="512" xmlns="http://www.w3.org/2000/svg"><g><path d="m474.5 155.131h-105.667c-20.678 0-37.5 16.822-37.5 37.5v122.011c0 12.407 10.094 22.5 22.5 22.5 2.629 0 5.153-.458 7.5-1.29v124.863c0 14.566 11.851 26.417 26.417 26.417 14.565 0 26.416-11.851 26.416-26.417v-138.574h15v138.573c0 14.566 11.851 26.417 26.417 26.417 14.565 0 26.416-11.851 26.416-26.417v-124.786c2.337.784 4.858 1.213 7.501 1.213 12.617 0 22.5-9.664 22.5-22v-122.51c0-20.678-16.822-37.5-37.5-37.5zm22.5 160.01c0 3.991-3.225 7-7.5 7s-7.5-3.009-7.5-7c-.001 0-.001-122.511-.001-122.511 0-4.142-3.357-7.5-7.5-7.5s-7.5 3.358-7.5 7.5v268.083c0 6.295-5.121 11.417-11.416 11.417s-11.417-5.122-11.417-11.417v-146.072c0-4.142-3.357-7.5-7.5-7.5h-30c-4.143 0-7.5 3.358-7.5 7.5v146.073c0 6.295-5.121 11.417-11.416 11.417s-11.417-5.122-11.417-11.417v-268.083c0-4.142-3.357-7.5-7.5-7.5s-7.5 3.358-7.5 7.5v122.011c0 4.136-3.364 7.5-7.5 7.5s-7.5-3.364-7.5-7.5v-122.011c0-12.407 10.094-22.5 22.5-22.5h105.667c12.406 0 22.5 10.093 22.5 22.5z"/><path d="m421.338 140.131c28.948 0 52.5-23.551 52.5-52.5s-23.552-52.5-52.5-52.5-52.5 23.551-52.5 52.5 23.552 52.5 52.5 52.5zm0-90c20.678 0 37.5 16.822 37.5 37.5s-16.822 37.5-37.5 37.5-37.5-16.822-37.5-37.5 16.822-37.5 37.5-37.5z"/><path d="m143.167 155.131h-105.667c-20.678 0-37.5 16.822-37.5 37.5v122.011c0 12.407 10.093 22.5 22.5 22.5 2.629 0 5.153-.458 7.5-1.29v124.863c0 14.566 11.851 26.417 26.417 26.417s26.417-11.851 26.417-26.417v-138.574h15v138.573c0 14.566 11.851 26.417 26.417 26.417s26.417-11.851 26.417-26.417v-124.785c2.337.784 4.858 1.213 7.5 1.213 12.617 0 22.5-9.664 22.5-22v-122.511c-.001-20.678-16.824-37.5-37.501-37.5zm22.5 160.01c0 3.991-3.224 7-7.5 7s-7.5-3.009-7.5-7v-122.511c0-4.142-3.358-7.5-7.5-7.5s-7.5 3.358-7.5 7.5v268.083c0 6.295-5.122 11.417-11.417 11.417s-11.417-5.122-11.417-11.417v-146.072c0-4.142-3.358-7.5-7.5-7.5h-30c-4.142 0-7.5 3.358-7.5 7.5v146.073c0 6.295-5.122 11.417-11.417 11.417s-11.416-5.122-11.416-11.417v-223.083c0-4.142-3.358-7.5-7.5-7.5s-7.5 3.358-7.5 7.5v77.011c0 4.136-3.364 7.5-7.5 7.5s-7.5-3.364-7.5-7.5v-122.011c0-12.407 10.093-22.5 22.5-22.5h105.667c12.407 0 22.5 10.093 22.5 22.5z"/><path d="m37.5 185.131c-4.142 0-7.5 3.358-7.5 7.5v15c0 4.142 3.358 7.5 7.5 7.5s7.5-3.358 7.5-7.5v-15c0-4.142-3.358-7.5-7.5-7.5z"/><path d="m90.004 140.131c28.949 0 52.5-23.551 52.5-52.5s-23.551-52.5-52.5-52.5-52.5 23.551-52.5 52.5 23.552 52.5 52.5 52.5zm0-90c20.678 0 37.5 16.822 37.5 37.5s-16.822 37.5-37.5 37.5-37.5-16.822-37.5-37.5 16.823-37.5 37.5-37.5z"/><path d="m153.024 113.462c-1.585 3.827.232 8.214 4.059 9.799.938.389 1.911.573 2.867.573 2.943 0 5.736-1.744 6.932-4.632 8.421-20.329 8.409-42.749-.032-63.129-1.585-3.827-5.974-5.644-9.799-4.059-3.827 1.585-5.644 5.972-4.059 9.799 6.908 16.679 6.92 35.021.032 51.649z"/><path d="m189.126 38.727c-3.827 1.584-5.646 5.971-4.061 9.798 10.45 25.241 10.458 53.021.026 78.22-1.584 3.827.234 8.214 4.061 9.798.938.388 1.91.572 2.866.572 2.943 0 5.737-1.744 6.933-4.633 11.964-28.899 11.955-60.754-.026-89.695-1.585-3.826-5.973-5.644-9.799-4.06z"/><path d="m221.201 25.442c-3.827 1.584-5.646 5.971-4.062 9.798 13.788 33.313 13.794 71.506.02 104.79-1.584 3.827.234 8.214 4.062 9.798.938.389 1.909.572 2.865.572 2.944 0 5.737-1.745 6.933-4.634 15.285-36.929 15.277-79.305-.02-116.262-1.584-3.828-5.97-5.647-9.798-4.062z"/><path d="m351.374 123.834c.956 0 1.929-.184 2.867-.573 3.826-1.585 5.645-5.972 4.06-9.799-6.888-16.629-6.876-34.972.032-51.648 1.586-3.827-.231-8.214-4.059-9.8-3.824-1.583-8.213.232-9.799 4.059-8.442 20.379-8.454 42.799-.033 63.129 1.197 2.888 3.989 4.632 6.932 4.632z"/><path d="m322.197 38.727c-3.824-1.585-8.213.234-9.798 4.061-11.98 28.941-11.989 60.796-.025 89.695 1.196 2.889 3.989 4.633 6.933 4.633.956 0 1.928-.184 2.866-.572 3.827-1.584 5.645-5.972 4.061-9.798-10.433-25.2-10.424-52.979.025-78.22 1.584-3.827-.234-8.214-4.062-9.799z"/><path d="m290.123 25.442c-3.828-1.586-8.214.234-9.798 4.062-15.297 36.958-15.304 79.334-.02 116.262 1.195 2.89 3.988 4.634 6.933 4.634.956 0 1.928-.184 2.865-.572 3.827-1.584 5.646-5.971 4.062-9.798-13.775-33.282-13.768-71.477.02-104.79 1.584-3.827-.235-8.214-4.062-9.798z"/></g></svg>