<?xml version="1.0" encoding="iso-8859-1"?>
<!-- Generator: Adobe Illustrator 19.0.0, SVG Export Plug-In . SVG Version: 6.00 Build 0)  -->
<svg version="1.1" id="Capa_1" xmlns="http://www.w3.org/2000/svg" xmlns:xlink="http://www.w3.org/1999/xlink" x="0px" y="0px"
	 viewBox="0 0 479.974 479.974" style="enable-background:new 0 0 479.974 479.974;" xml:space="preserve">
<path style="fill:#4398D1;" d="M350.456,214.414l-84.912-84.912L264,127.958l-256,280l64,64l280-256L350.456,214.414z"/>
<path style="fill:#3E8CC7;" d="M308,171.958l-268,268l32,32l280-256l-1.544-1.544L308,171.958z"/>
<g>
	<path style="fill:#2A7DB8;" d="M320,247.958c-2.122,0-4.156-0.844-5.656-2.344l-80-80c-3.069-3.178-2.982-8.243,0.196-11.312
		c3.1-2.994,8.015-2.994,11.116,0l80,80c3.124,3.125,3.123,8.19-0.002,11.314C324.154,247.116,322.121,247.958,320,247.958z"/>
	<path style="fill:#2A7DB8;" d="M168,287.994l47.999-47.999l24.002,24.002l-47.999,47.999L168,287.994z"/>
</g>
<path style="fill:#87CED9;" d="M472,111.958C472.311,54.522,426.002,7.708,368.565,7.396S264.314,53.394,264.003,110.831
	c-0.034,6.278,0.5,12.546,1.597,18.728l84.8,84.8c56.262,10.013,109.988-27.48,120.001-83.742
	C471.497,124.458,472.032,118.213,472,111.958L472,111.958z"/>
<path style="fill:#78C3CF;" d="M426.976,26.358c34.259,45.805,24.899,110.709-20.905,144.968
	c-22.771,17.031-51.542,23.951-79.567,19.136l23.896,23.896c56.553,9.758,110.309-28.178,120.067-84.731
	C477.362,89.667,460.381,49.347,426.976,26.358z"/>
<g>
	<path style="fill:#DEDEDE;" d="M452.472,172.43L307.528,27.486L296,15.958l-24,24l11.528,11.528L428.472,196.43L440,207.958l24-24
		L452.472,172.43z"/>
	<path style="fill:#DEDEDE;" d="M192.004,263.956l24.002-24.002l24.002,24.002l-24.002,24.002L192.004,263.956z"/>
</g>
<path style="fill:#CFCFCF;" d="M444,163.958l-24,24l8.472,8.472L440,207.958l24-24l-11.528-11.528L444,163.958z"/>
<path d="M245.656,258.302l-24-24c-3.124-3.123-8.188-3.123-11.312,0l-48,48c-3.123,3.124-3.123,8.188,0,11.312l24,24
	c3.124,3.123,8.188,3.123,11.312,0l48-48C248.779,266.491,248.779,261.426,245.656,258.302z M192,300.646l-12.688-12.688
	L192,275.271l12.688,12.688L192,300.646z M216,276.646l-12.688-12.688L216,251.271l12.688,12.688L216,276.646z"/>
<path d="M308.6,17.246l-6.944-6.944c-3.124-3.123-8.188-3.123-11.312,0l-24,24c-3.123,3.124-3.123,8.188,0,11.312l6.968,6.968
	c-13.275,21.298-19.069,46.415-16.464,71.376L2.096,402.559c-2.888,3.158-2.779,8.03,0.248,11.056l64,64
	c3.026,3.027,7.898,3.136,11.056,0.248L356,223.158c24.996,2.787,50.195-3.023,71.448-16.472l6.92,6.92
	c3.124,3.123,8.188,3.123,11.312,0l24-24c3.123-3.124,3.123-8.188,0-11.312l-6.936-6.944
	c32.911-52.207,17.269-121.208-34.938-154.119C391.386-5.729,345.015-5.723,308.6,17.246L308.6,17.246z M72.248,460.895
	l-53.184-53.184l218.448-238.952l73.688,73.688L72.248,460.895z M322.992,231.639l-74.672-74.672l15.936-17.44l76.168,76.176
	L322.992,231.639z M415.792,195.087c-18.638,10.652-40.286,14.811-61.544,11.824l-40.608-40.608l-40.608-40.608
	c-2.983-21.259,1.179-42.907,11.832-61.544l65.464,65.464L415.792,195.087z M439.984,196.687l-5.864-5.864l-144.944-145
	l-5.864-5.864L296,27.271l5.864,5.864l144.96,144.96l5.864,5.864L439.984,196.687z M451.128,159.831L320.176,28.814
	c45.873-26.46,104.511-10.722,130.971,35.152c17.103,29.652,17.102,66.173-0.003,95.824L451.128,159.831z"/>
<g>
</g>
<g>
</g>
<g>
</g>
<g>
</g>
<g>
</g>
<g>
</g>
<g>
</g>
<g>
</g>
<g>
</g>
<g>
</g>
<g>
</g>
<g>
</g>
<g>
</g>
<g>
</g>
<g>
</g>
</svg>
